<svg width="18" height="10" viewBox="0 0 18 10" fill="none" xmlns="http://www.w3.org/2000/svg"><path d="M17.2667 4.68334C17.2271 4.58104 17.1676 4.48759 17.0917 4.40834L13.7584 1.075C13.6807 0.997303 13.5885 0.935669 13.487 0.893619C13.3854 0.851569 13.2766 0.829926 13.1667 0.829926C12.9448 0.829926 12.732 0.918082 12.5751 1.075C12.4182 1.23192 12.33 1.44475 12.33 1.66667C12.33 1.88859 12.4182 2.10142 12.5751 2.25834L14.4917 4.16667H3.50841L5.42508 2.25834C5.50278 2.18064 5.56441 2.08839 5.60646 1.98688C5.64851 1.88536 5.67015 1.77655 5.67015 1.66667C5.67015 1.55679 5.64851 1.44798 5.60646 1.34646C5.56441 1.24494 5.50278 1.1527 5.42508 1.075C5.34738 0.997303 5.25514 0.935669 5.15362 0.893619C5.0521 0.851569 4.94329 0.829926 4.83341 0.829926C4.72353 0.829926 4.61472 0.851569 4.5132 0.893619C4.41168 0.935669 4.31944 0.997303 4.24174 1.075L0.90841 4.40834C0.832543 4.48759 0.773072 4.58104 0.73341 4.68334C0.650061 4.88622 0.650061 5.11378 0.73341 5.31667C0.773072 5.41896 0.832543 5.51242 0.90841 5.59167L4.24174 8.925C4.31921 9.00311 4.41138 9.0651 4.51293 9.10741C4.61448 9.14972 4.7234 9.1715 4.83341 9.1715C4.94342 9.1715 5.05234 9.14972 5.15389 9.10741C5.25544 9.0651 5.34761 9.00311 5.42508 8.925C5.50318 8.84753 5.56518 8.75536 5.60749 8.65382C5.64979 8.55227 5.67158 8.44334 5.67158 8.33333C5.67158 8.22332 5.64979 8.1144 5.60749 8.01285C5.56518 7.9113 5.50318 7.81914 5.42508 7.74167L3.50841 5.83334H14.4917L12.5751 7.74167C12.497 7.81914 12.435 7.9113 12.3927 8.01285C12.3504 8.1144 12.3286 8.22332 12.3286 8.33333C12.3286 8.44334 12.3504 8.55227 12.3927 8.65382C12.435 8.75536 12.497 8.84753 12.5751 8.925C12.6525 9.00311 12.7447 9.0651 12.8463 9.10741C12.9478 9.14972 13.0567 9.1715 13.1667 9.1715C13.2768 9.1715 13.3857 9.14972 13.4872 9.10741C13.5888 9.0651 13.6809 9.00311 13.7584 8.925L17.0917 5.59167C17.1676 5.51242 17.2271 5.41896 17.2667 5.31667C17.3501 5.11378 17.3501 4.88622 17.2667 4.68334Z" fill="#48484D"></path></svg>