<svg width="14" height="14" viewBox="0 0 14 14" fill="none" xmlns="http://www.w3.org/2000/svg"><path d="M10.9997 6.21334C10.8229 6.21334 10.6533 6.28358 10.5283 6.40861C10.4032 6.53363 10.333 6.7032 10.333 6.88001V11.6667C10.333 11.8435 10.2628 12.0131 10.1377 12.1381C10.0127 12.2631 9.84315 12.3333 9.66634 12.3333H2.33301C2.1562 12.3333 1.98663 12.2631 1.8616 12.1381C1.73658 12.0131 1.66634 11.8435 1.66634 11.6667V4.33334C1.66634 4.15653 1.73658 3.98696 1.8616 3.86194C1.98663 3.73691 2.1562 3.66668 2.33301 3.66668H7.11967C7.29649 3.66668 7.46605 3.59644 7.59108 3.47141C7.7161 3.34639 7.78634 3.17682 7.78634 3.00001C7.78634 2.8232 7.7161 2.65363 7.59108 2.52861C7.46605 2.40358 7.29649 2.33334 7.11967 2.33334H2.33301C1.80257 2.33334 1.29387 2.54406 0.918794 2.91913C0.543722 3.2942 0.333008 3.80291 0.333008 4.33334V11.6667C0.333008 12.1971 0.543722 12.7058 0.918794 13.0809C1.29387 13.456 1.80257 13.6667 2.33301 13.6667H9.66634C10.1968 13.6667 10.7055 13.456 11.0806 13.0809C11.4556 12.7058 11.6663 12.1971 11.6663 11.6667V6.88001C11.6663 6.7032 11.5961 6.53363 11.4711 6.40861C11.3461 6.28358 11.1765 6.21334 10.9997 6.21334ZM13.613 0.746677C13.5454 0.583777 13.4159 0.454327 13.253 0.386677C13.1729 0.352516 13.0868 0.334397 12.9997 0.333344H8.99967C8.82286 0.333344 8.65329 0.403581 8.52827 0.528606C8.40324 0.65363 8.33301 0.823199 8.33301 1.00001C8.33301 1.17682 8.40324 1.34639 8.52827 1.47141C8.65329 1.59644 8.82286 1.66668 8.99967 1.66668H11.393L4.52634 8.52668C4.46386 8.58865 4.41426 8.66239 4.38041 8.74362C4.34657 8.82486 4.32914 8.912 4.32914 9.00001C4.32914 9.08802 4.34657 9.17515 4.38041 9.25639C4.41426 9.33763 4.46386 9.41137 4.52634 9.47334C4.58832 9.53583 4.66205 9.58542 4.74329 9.61927C4.82453 9.65312 4.91167 9.67054 4.99967 9.67054C5.08768 9.67054 5.17482 9.65312 5.25606 9.61927C5.3373 9.58542 5.41103 9.53583 5.47301 9.47334L12.333 2.60668V5.00001C12.333 5.17682 12.4032 5.34639 12.5283 5.47141C12.6533 5.59644 12.8229 5.66668 12.9997 5.66668C13.1765 5.66668 13.3461 5.59644 13.4711 5.47141C13.5961 5.34639 13.6663 5.17682 13.6663 5.00001V1.00001C13.6653 0.912892 13.6472 0.826825 13.613 0.746677Z" fill="#3F20FB"></path></svg>